<svg xmlns="http://www.w3.org/2000/svg" fill="none" viewBox="0 0.5 16 19">
<path fill-rule="evenodd" clip-rule="evenodd" d="M10.9606 3.54035C11.6524 2.71936 11.9994 1.83237 11.9994 0.88239V0.882379C11.9994 0.75638 11.9936 0.629375 11.9795 0.50238C11.4976 0.527378 10.9852 0.673379 10.4435 0.93738C9.90062 1.20538 9.45303 1.54134 9.10099 1.94539C8.39601 2.7434 7.99896 3.71939 7.99896 4.63136C7.99896 4.75741 8.00705 4.87735 8.02101 4.99132C9.11597 5.08032 10.1258 4.51634 10.9606 3.54035ZM14.6435 17.1415C15.0374 16.5799 15.3774 15.9691 15.6647 15.3054C15.7832 15.024 15.8945 14.7309 16 14.4248C15.5134 14.2208 15.0761 13.9336 14.6845 13.5619C13.8204 12.761 13.3807 11.7525 13.3678 10.5405C13.3537 8.98439 14.0607 7.77145 15.49 6.90544C14.6915 5.77046 13.4909 5.14047 11.8927 5.01149C11.3029 4.96142 10.583 5.08852 9.73006 5.39548C8.82804 5.72648 8.29595 5.89251 8.13895 5.89251C7.92896 5.89251 7.44999 5.75052 6.70404 5.47053C5.95598 5.19147 5.35402 5.04948 4.89498 5.04948C4.05605 5.06344 3.27704 5.28152 2.55607 5.70948C1.83509 6.13745 1.25904 6.72042 0.826027 7.45945C0.27507 8.37952 0 9.47744 0 10.7505C0 11.8618 0.204016 13.0096 0.610994 14.1951C0.991006 15.2925 1.47607 16.2552 2.06607 17.0853C2.61598 17.8627 3.07502 18.4114 3.44201 18.7315C4.01701 19.2661 4.59306 19.5205 5.17099 19.496C5.551 19.4831 6.04802 19.3529 6.665 19.1032C7.28103 18.8546 7.85697 18.7315 8.39401 18.7315C8.90604 18.7315 9.46601 18.8546 10.0753 19.1032C10.6827 19.3529 11.2045 19.476 11.6372 19.476C12.2398 19.4619 12.8026 19.2145 13.3279 18.7315C13.6668 18.4371 14.1065 17.9072 14.6435 17.1415Z" fill="white"/>
</svg>