<svg xmlns="http://www.w3.org/2000/svg" fill="none" viewBox="0 0.27 16 17.45">
<path fill-rule="evenodd" clip-rule="evenodd" d="M0.415277 17.483L8.07418 9.84581L10.7739 12.5374L1.6691 17.5854C1.32292 17.7775 0.898909 17.7746 0.554908 17.5775L0.415277 17.483ZM7.30184 9.07561L0 16.3564V1.79489L7.30184 9.07561ZM11.8648 6.0669L15.432 8.04436C15.7826 8.23927 16 8.60437 16 9.00003C16 9.39562 15.7826 9.76069 15.432 9.9556L11.7673 11.9869L8.84725 9.07561L11.8648 6.0669ZM0.334549 0.587613C0.400005 0.524339 0.473455 0.469067 0.554908 0.422521C0.898909 0.22543 1.32292 0.22252 1.6691 0.414521L10.8713 5.51635L8.07418 8.30542L0.334549 0.587613Z" fill="white"/>
</svg>